<?xml version="1.0" encoding="UTF-8" standalone="no"?>
<svg
   version="1.2"
   viewBox="0 0 1024 1024"
   width="1024"
   height="1024"
   id="svg1"
   xml:space="preserve"
   xmlns="http://www.w3.org/2000/svg"
   xmlns:svg="http://www.w3.org/2000/svg"><defs
     id="defs1" /><style
     id="style1">
		.s0 { fill: #f3efeb } 
		.s1 { fill: #391d12 } 
		.s2 { fill: #70371c } 
		.s3 { fill: #f9bf84 } 
		.s4 { fill: #e1945c } 
		.s5 { fill: #97522c } 
		.s6 { fill: #e5e0db } 
	</style><rect
     style="fill:#afff99;fill-opacity:1;stroke:#2359de;stroke-width:1.467;stroke-linecap:round;stroke-linejoin:round;stroke-opacity:0.694118;paint-order:fill markers stroke"
     id="rect2"
     width="1022.533"
     height="1022.533"
     x="0.7335"
     y="0.7335"
     ry="0" /><g
     id="g194"
     transform="matrix(0.46873966,-0.08835022,0.08835022,0.46873966,-654.91968,96.413412)"><g
       id="g134"><g
         id="g121"><g
           id="g120"><path
             style="fill:#ffcba2"
             d="m 2898.926,1571.234 c 0,0 167.657,-15.369 185.625,149.231 17.968,164.599 -147.41,288.03 -295.215,261.547 0,0 -29.164,-91.752 -30.508,-116.982 -1.344,-25.23 140.098,-293.796 140.098,-293.796 z"
             id="path119" /></g></g><g
         style="opacity:0.4"
         id="g123"><g
           id="g122"><path
             style="fill:#ffffff"
             d="m 3076.625,1739.242 c 0,0 -12.242,-105.691 -182.809,-126.329 l 6.316,-32.583 19.249,-9.269 c 0,0 71.192,-1.156 120.216,47.545 49.024,48.701 37.028,120.636 37.028,120.636 z"
             id="path121" /></g></g><g
         id="g125"><g
           id="g124"><path
             style="fill:#660000"
             d="m 2829.626,2003.753 c -14.653,0 -29.209,-1.25 -43.503,-3.809 -6.655,-1.196 -12.102,-5.972 -14.15,-12.417 -3.057,-9.619 -29.912,-94.741 -31.338,-121.533 -0.41,-7.695 -1.096,-20.581 71.448,-165.479 34.873,-69.658 70.369,-137.1 70.725,-137.774 2.874,-5.454 8.313,-9.087 14.456,-9.653 1.855,-0.166 185.718,-14.902 205.398,165.401 8.386,76.816 -20.85,152.661 -80.212,208.086 -52.907,49.395 -123.801,77.178 -192.824,77.178 z m -26.306,-38.042 c 67.678,8.457 141.182,-16.206 194.26,-65.767 51.638,-48.213 76.091,-111.25 68.86,-177.5 -13.455,-123.267 -120.278,-133.442 -155.139,-133.442 -0.388,0 -0.764,0 -1.135,0 -63.792,121.548 -129.507,254.932 -133.088,275.923 1.276,16.074 15.519,66.137 26.242,100.786 z"
             id="path123" /></g></g><g
         id="g127"><g
           id="g126"><path
             style="fill:#f48576"
             d="m 2862.288,1694.225 c 0,0 88.034,3.08 100.332,52.207 12.298,49.127 -50.977,151.454 -190.665,103.663 0,0 22.414,-142.111 90.333,-155.87 z"
             id="path125" /></g></g><g
         id="g129"><g
           id="g128"><path
             style="fill:#660000"
             d="m 2840.642,1880.813 c -21.563,0 -46.345,-3.818 -74.583,-13.481 -8.374,-2.861 -13.479,-11.333 -12.1,-20.073 2.495,-15.825 26.641,-155.073 104.709,-170.889 1.401,-0.283 2.827,-0.386 4.255,-0.352 10.413,0.366 102.178,5.307 117.368,65.991 7.927,31.675 -7.791,73.33 -38.228,101.299 -17.53,16.114 -50.433,37.505 -101.421,37.505 z m -47.723,-43.325 c 67.83,18.418 106.775,-4.726 124.49,-21.006 23.215,-21.338 31.514,-49.736 27.537,-65.625 -7.009,-28.003 -59.895,-37.031 -81.033,-38.311 -38.335,10.099 -62.063,84.185 -70.994,124.942 z"
             id="path127" /></g></g><g
         style="opacity:0.3"
         id="g131"><g
           id="g130"><path
             style="fill:#660000"
             d="m 3082.3,1704.843 c 0,0 -62.016,264.727 -310.425,207.448 l 15.3,42.213 13.434,29.217 c 0,0 111.276,3.023 176.711,-44.428 65.436,-47.451 133.78,-148.94 104.98,-234.45 z"
             id="path129" /></g></g><g
         style="opacity:0.3"
         id="g133"><g
           id="g132"><path
             style="fill:#660000"
             d="m 2932.394,1827.36 c 0,0 -0.416,-47.489 -32.241,-68.24 -31.826,-20.751 -55.295,-25.367 -55.295,-25.367 l 30.016,-38.44 c 0,0 48.251,7.467 72.729,27.001 24.478,19.534 20.462,81.075 -15.209,105.046 z"
             id="path131" /></g></g></g><g
       id="g149"><g
         id="g136"><g
           id="g135"><path
             style="fill:#ffcba2"
             d="m 1557.376,1211.552 c 0,0 -149.61,-77.725 -227.734,67.988 -78.124,145.713 29.015,322.705 175.862,354.133 0,0 61.291,-73.974 71.96,-96.843 10.668,-22.868 -20.088,-325.278 -20.088,-325.278 z"
             id="path134" /></g></g><g
         style="opacity:0.4"
         id="g138"><g
           id="g137"><path
             style="fill:#ffffff"
             d="m 1333.504,1300.634 c 0,0 50.818,-93.297 216.571,-47.834 l 6.316,-32.583 -14.374,-15.878 c 0,0 -65.535,-28.029 -129.149,-1.466 -63.614,26.564 -79.364,97.761 -79.364,97.761 z"
             id="path136" /></g></g><g
         id="g140"><g
           id="g139"><path
             style="fill:#660000"
             d="m 1505.505,1651.892 c -1.267,0 -2.544,-0.132 -3.813,-0.405 -81.194,-17.378 -154.624,-77.793 -191.633,-157.671 -34.167,-73.74 -32.881,-154.975 3.528,-222.886 85.632,-159.707 250.532,-76.406 252.188,-75.547 5.449,2.832 9.104,8.218 9.726,14.321 0.076,0.762 7.781,76.69 14.08,154.439 13.101,161.728 7.649,173.408 4.392,180.391 -11.328,24.287 -68.013,93.008 -74.438,100.762 -3.503,4.228 -8.671,6.596 -14.03,6.596 z m -36.472,-442.944 c -41.167,0 -89.609,16.299 -123.333,79.199 -31.404,58.569 -32.319,126.172 -2.583,190.352 30.654,66.157 89.597,116.943 155.564,134.785 22.866,-28.042 54.712,-68.984 61.892,-83.374 4.519,-20.83 -6.56,-169.356 -20.276,-306.138 -13.313,-5.547 -40.219,-14.824 -71.264,-14.824 z"
             id="path138" /></g></g><g
         id="g142"><g
           id="g141"><path
             style="fill:#f48576"
             d="m 1545.39,1339.388 c 0,0 -82.722,-30.481 -112.465,10.383 -29.743,40.864 -9.33,159.639 137.952,168.251 0,-10e-4 32.307,-140.167 -25.487,-178.634 z"
             id="path140" /></g></g><g
         id="g144"><g
           id="g143"><path
             style="fill:#660000"
             d="m 1570.888,1536.238 c -0.356,0 -0.713,-0.01 -1.072,-0.029 -100.266,-5.859 -139.6,-58.267 -154.121,-88.984 -17.676,-37.383 -16.648,-81.87 2.5,-108.179 36.785,-50.532 123.704,-20.361 133.494,-16.753 1.336,0.493 2.61,1.138 3.797,1.929 66.367,44.17 36.743,182.285 33.147,197.891 -1.917,8.305 -9.312,14.125 -17.745,14.125 z m -85.432,-189.541 c -15.645,0 -30.252,3.418 -37.803,13.794 -9.597,13.188 -12.517,42.607 0.981,71.162 10.327,21.841 37.759,58.105 107.522,66.753 6.941,-41.177 12.593,-118.789 -19.194,-142.671 -11.098,-3.774 -32.102,-9.038 -51.506,-9.038 z"
             id="path142" /></g></g><g
         style="opacity:0.3"
         id="g146"><g
           id="g145"><path
             style="fill:#660000"
             d="m 1337.562,1265.917 c 0,0 -41.407,268.777 210.16,309.765 l -29.943,33.32 -23.36,21.985 c 0,0 -104.237,-39.335 -147.146,-108.08 -42.91,-68.745 -68.334,-188.662 -9.711,-256.99 z"
             id="path144" /></g></g><g
         style="opacity:0.3"
         id="g148"><g
           id="g147"><path
             style="fill:#660000"
             d="m 1430.707,1436.204 c 0,0 18.121,-43.846 55.361,-51.023 37.24,-7.177 60.71,-2.567 60.71,-2.567 l -13.456,-46.984 c 0,0 -47.498,-11.352 -77.475,-2.521 -29.977,8.832 -49.241,67.376 -25.14,103.095 z"
             id="path146" /></g></g></g><g
       id="g151"><g
         id="g150"><path
           style="fill:#b74829"
           d="m 1619.311,1023.195 c 137.855,-284.572 304.389,-324.665 747.79,-343.479 72.528,-12.322 166.703,-112.197 166.703,-112.197 36.012,79.558 27.88,157.689 27.88,157.689 47.302,-14.863 110.381,-62.866 110.381,-62.866 24.74,113.583 -9.511,169.668 -9.511,169.668 0,0 247.708,133.246 269.161,449.129 21.453,315.883 -152.332,491.921 -152.332,491.921 43.223,66.479 56.684,238.247 -82.077,302.783 -233.816,96.59 -600.909,0.281 -600.909,0.281 0,0 -376.115,-49.763 -556.694,-227.8 -104.47,-112.342 -27.845,-266.403 37.034,-311.636 0,0 -95.281,-228.921 42.574,-513.493 z"
           id="path149" /></g></g><g
       id="g153"><g
         id="g152"><path
           style="fill:#ffcba2"
           d="m 1572.337,1688.032 c 33.061,-90.143 96.124,-85.802 96.124,-85.802 0,0 -63.913,-168.798 43.975,-427.851 107.889,-259.054 464.633,-201.824 553.301,28.213 168.075,-179.576 520.007,-97.521 523.224,183.37 3.217,280.891 -119.048,413.096 -119.048,413.096 0,0 60.056,19.857 57.023,115.901 -12.958,147.247 -146.146,192.974 -146.146,192.974 -126.174,36.916 -484.392,-31.811 -484.392,-31.811 0,0 -357.591,-71.96 -460.716,-153.943 10e-4,0 -106.331,-92.802 -63.345,-234.147 z"
           id="path151" /></g></g><g
       id="g155"><g
         id="g154"><ellipse
           transform="matrix(0.1879,-0.9822,0.9822,0.1879,402.2724,3698.5911)"
           style="fill:#660000"
           cx="2437.689"
           cy="1606.04"
           rx="168.31799"
           ry="117.821"
           id="ellipse153" /></g></g><g
       id="g157"><g
         id="g156"><ellipse
           transform="matrix(0.1831,-0.9831,0.9831,0.1831,459.455,3658.6309)"
           style="fill:#ffffff"
           cx="2431.3"
           cy="1552.84"
           rx="55.710999"
           ry="47.868999"
           id="ellipse155" /></g></g><g
       id="g159"><g
         id="g158"><ellipse
           transform="matrix(0.8885,-0.459,0.459,0.8885,-514.1647,1317.4382)"
           style="fill:#997f7f"
           cx="2453.2329"
           cy="1716.491"
           rx="28.667999"
           ry="15.297"
           id="ellipse157" /></g></g><g
       id="g161"><g
         id="g160"><ellipse
           transform="matrix(0.1879,-0.9822,0.9822,0.1879,94.3399,3130.6541)"
           style="fill:#660000"
           cx="1940.2889"
           cy="1508.2791"
           rx="168.31799"
           ry="117.821"
           id="ellipse159" /></g></g><g
       id="g163"><g
         id="g162"><ellipse
           transform="matrix(0.1831,-0.9831,0.9831,0.1831,169.3239,3126.5879)"
           style="fill:#ffffff"
           cx="1966.079"
           cy="1461.4041"
           rx="55.710999"
           ry="47.868999"
           id="ellipse161" /></g></g><g
       id="g165"><g
         id="g164"><ellipse
           transform="matrix(0.7601,-0.6498,0.6498,0.7601,-590.6437,1609.6626)"
           style="fill:#997f7f"
           cx="1884.634"
           cy="1604.736"
           rx="15.259"
           ry="28.740999"
           id="ellipse163" /></g></g><g
       id="g167"><g
         id="g166"><path
           style="fill:#660000"
           d="m 2591.091,1373.872 c -20.619,-14.372 -37.776,-30.974 -56.849,-45.875 -4.916,-3.667 -10.448,-8.005 -15.865,-10.135 -9.686,-3.111 -28.344,0.568 -40.206,2.28 -15.895,2.565 -32.31,5.776 -49.1,7.961 -5.801,0.873 -8.926,-7.099 -4.095,-10.386 21.773,-15.229 45.455,-26.38 71.687,-32.004 5.892,-1.247 12.514,-1.894 18.609,-1.888 24.794,0.729 43.819,20.607 58.549,38.234 10.799,13.816 19.984,28.375 26.23,45.075 2.157,5.252 -4.573,10.248 -8.96,6.738 z"
           id="path165" /></g></g><g
       id="g169"><g
         id="g168"><path
           style="fill:#660000"
           d="m 1893.845,1228.343 c 23.454,-24.003 53.662,-43.435 87.43,-47.979 13.651,-1.895 27.918,4.169 39.005,11.785 22.125,15.132 39.843,34.38 54.253,56.685 1.696,2.689 0.891,6.244 -1.798,7.939 -1.915,1.207 -4.258,1.146 -6.072,0.046 -21.549,-12.12 -41.253,-26.279 -62.512,-37.389 -10.913,-5.449 -15.033,-7.053 -24.33,-4.944 -27.26,5.928 -52.136,17.323 -80.21,23.471 -5.499,1.532 -9.706,-5.516 -5.766,-9.614 z"
           id="path167" /></g></g><g
       id="g171"><g
         id="g170"><path
           style="fill:#660000"
           d="m 2180.556,1836.558 c -49.762,34.387 -132.761,27.371 -155.42,-36.255 -6.93,-19.339 -7.797,-39.095 -4.467,-57.516 0.564,-3.125 3.556,-5.2 6.681,-4.635 2.243,0.406 3.95,2.062 4.518,4.124 9.099,30.85 19.74,61.097 49.573,74.609 28.584,12.618 63.036,9.881 95.206,9.165 5.801,-0.649 8.731,7.251 3.909,10.508 z"
           id="path169" /></g></g><g
       id="g173"><g
         id="g172"><path
           style="fill:#660000"
           d="m 2187.477,1777.204 c -10.177,-10.383 -9.524,-22.876 -1.921,-33.652 3.646,-5.371 14.741,-15.365 21.219,-6.979 7.784,10.386 9.764,23.084 2.97,33.855 -3.324,5.315 -15.585,14.342 -22.268,6.776 z"
           id="path171" /></g></g><g
       id="g175"><g
         id="g174"><path
           style="fill:#660000"
           d="m 2126.951,1765.309 c -10.177,-10.382 -9.524,-22.876 -1.922,-33.652 3.646,-5.37 14.741,-15.365 21.218,-6.979 7.785,10.387 9.764,23.084 2.971,33.855 -3.323,5.314 -15.584,14.341 -22.267,6.776 z"
           id="path173" /></g></g><g
       style="opacity:0.3"
       id="g177"><g
         id="g176"><path
           style="fill:#660000"
           d="m 2808.975,1880.651 c 0,0 -180.378,201.821 -694.229,100.828 -513.851,-100.994 -618.218,-320.881 -618.218,-320.881 0,0 -166.61,264.88 599.87,415.527 766.48,150.647 715.327,-165.393 712.577,-195.474 z"
           id="path175" /></g></g><g
       style="opacity:0.4"
       id="g179"><g
         id="g178"><path
           style="fill:#ffffff"
           d="m 2897.508,1562.255 c 0,0 44.197,-300.897 -84.798,-497.787 -78.869,-117.779 -160.385,-171.652 -194.761,-199.347 -34.376,-27.695 9.334,-80.31 4.833,-93.275 -4.501,-12.965 -65.171,14.573 -89.792,4.901 -24.622,-9.671 -14.835,-96.335 -26.547,-96.221 -11.712,0.114 -91.507,39.111 -130.316,30.323 -179.018,-40.536 -495.374,-55.784 -695.682,205.641 -200.308,261.425 -131.064,502.019 -131.064,502.019 0,0 -36.681,-207.192 92.984,-439.663 129.665,-232.471 266.17,-249.021 475.543,-283.572 132.087,-3.555 249.194,-15.559 249.194,-15.559 0,0 57.865,-18.709 77.151,-34.164 19.287,-15.455 82.817,-71.74 87.823,-71.125 5.006,0.615 15.687,12.546 15.687,12.546 0,0 14.995,64.354 15.662,95.088 0.666,30.734 3.74,45.029 3.74,45.029 0,0 95.739,-53.664 103.997,-54.054 8.259,-0.39 13.342,71.881 8.678,99.957 -4.664,28.076 -6.546,47.839 -6.546,47.839 l 1.797,16.863 c 0,0 119.167,77.154 199.429,227.231 80.263,150.078 56.847,368.353 56.847,368.353 0,0 -16.696,113.354 -33.859,128.977 z"
           id="path177" /></g></g><g
       style="opacity:0.4"
       id="g181"><g
         id="g180"><path
           style="fill:#ffffff"
           d="m 2755.561,1606.504 c 0,0 52.64,-283.603 -110.84,-397.073 -163.48,-113.47 -369.522,-7.394 -369.522,-7.394 0,0 117.673,-171.664 377,-53.437 227.797,103.851 103.362,457.904 103.362,457.904 z"
           id="path179" /></g></g><g
       style="opacity:0.4"
       id="g183"><g
         id="g182"><path
           style="fill:#ffffff"
           d="m 1660.943,1391.365 c 0,0 57.145,-282.718 251.004,-325.955 193.86,-43.238 345.159,133.071 345.159,133.071 0,0 -44.921,-203.621 -329.369,-192.269 -249.863,9.97 -266.794,385.153 -266.794,385.153 z"
           id="path181" /></g></g><g
       id="g185"><g
         id="g184"><path
           style="fill:#660000"
           d="m 2436.113,2137.342 c -170.525,0 -325.891,-38.828 -343.235,-43.306 -27.241,-3.711 -386.318,-55.625 -565.964,-232.739 -0.188,-0.185 -0.371,-0.376 -0.549,-0.566 -42.649,-45.864 -61.668,-103.101 -55,-165.532 7.71,-72.183 46.794,-133.262 83.667,-164.702 -18.386,-53.76 -74.802,-261.987 47.883,-515.244 41.448,-85.552 95.627,-180.659 183.225,-237.344 120.327,-77.866 320.515,-94.643 552.314,-114.072 l 26.318,-2.207 c 65.562,-11.714 154.883,-105.664 155.781,-106.611 4.17,-4.419 10.266,-6.445 16.257,-5.469 5.989,1.006 11.086,4.922 13.591,10.454 24.331,53.76 29.636,106.475 30.251,137.915 38.848,-18.648 79.883,-49.697 80.381,-50.078 4.951,-3.769 11.489,-4.741 17.329,-2.593 5.84,2.153 10.178,7.139 11.501,13.218 18.501,84.932 5.5,140.391 -4.094,166.231 22.778,14.502 69.043,47.358 116.946,101.328 60.833,68.545 135.745,185.576 147.175,353.882 19.089,281.065 -110.918,452.656 -148.069,495.562 22.524,43.242 35.925,114.912 15.83,184.927 -17.241,60.073 -56.199,105.708 -112.664,131.968 -0.239,0.112 -0.483,0.22 -0.728,0.317 -81.134,33.518 -176.818,44.656 -268.146,44.661 z M 1552.78,1835.633 c 174.333,171.533 542.31,221.943 546.008,222.432 0.75,0.098 1.497,0.249 2.229,0.439 3.613,0.947 363.577,93.496 588.962,0.654 47.073,-22.002 78.242,-58.613 92.651,-108.813 18.152,-63.247 4.424,-132.066 -18.521,-167.354 -4.668,-7.178 -3.706,-16.636 2.31,-22.729 1.66,-1.694 167.717,-174.614 147.119,-477.886 -20.481,-301.558 -257.246,-433.042 -259.634,-434.331 -4.395,-2.378 -7.629,-6.465 -8.931,-11.289 -1.302,-4.824 -0.571,-9.976 2.031,-14.243 0.2,-0.342 24.6,-43.315 12.268,-128.721 -23.599,15.991 -60.618,38.897 -92.129,48.799 -5.85,1.836 -12.239,0.61 -16.987,-3.276 -4.751,-3.882 -7.229,-9.893 -6.594,-15.991 0.063,-0.63 5.564,-58.789 -16.533,-123.447 -32.744,30.986 -99.595,88.071 -156.877,97.798 -0.505,0.088 -1.013,0.151 -1.521,0.195 l -27.134,2.275 c -226.921,19.019 -422.898,35.444 -535.564,108.35 -63.684,41.211 -114.592,107.798 -170.227,222.647 v 0 c -132.356,273.213 -43.057,496.348 -42.141,498.569 3.264,7.9 0.603,17.031 -6.409,21.924 -34.265,23.887 -72.595,82.202 -79.563,147.437 -3.836,35.921 0.905,88.748 45.187,136.561 z m 66.531,-812.437 h 0.049 z"
           id="path183" /></g></g><g
       id="g187"><g
         id="g186"><path
           style="fill:#660000"
           d="m 2474.431,2135.608 c -154.976,0 -369.668,-40.752 -381.201,-42.969 -14.912,-2.998 -362.922,-73.75 -468.01,-157.295 -0.203,-0.161 -0.4,-0.327 -0.593,-0.493 -4.678,-4.082 -114.006,-101.685 -68.376,-251.714 0.09,-0.303 0.193,-0.6 0.3,-0.898 24.495,-66.787 64.788,-87.656 90.105,-94.072 -13.718,-52.9 -38.916,-206.138 50.256,-420.254 47.896,-115 150.32,-182.524 274.304,-181.011 129.146,1.724 246.667,75.703 300.203,186.538 90.62,-82.017 226.626,-106.255 346.582,-59.668 116.145,45.107 186.343,146.787 187.778,272.002 2.659,232.183 -77.944,364.648 -110.413,408.467 21.045,15.493 50.627,50.054 48.381,121.25 -0.01,0.313 -0.029,0.63 -0.056,0.942 -13.76,156.333 -151.58,205.391 -157.439,207.402 -0.244,0.088 -0.491,0.166 -0.74,0.234 -28.31,8.287 -67.331,11.539 -111.081,11.539 z m -827.935,-226.313 c 99.246,78.418 449.688,149.634 453.22,150.347 3.386,0.645 354.7,67.339 475.93,32.275 8.32,-2.979 122.646,-46.27 134.497,-177.959 2.368,-80.747 -43.74,-98.291 -45.708,-98.999 -5.308,-1.909 -9.412,-6.392 -10.75,-11.87 -1.338,-5.483 0.051,-11.304 3.882,-15.444 1.152,-1.26 117.671,-131.567 114.578,-401.489 -1.289,-112.627 -61.912,-200.478 -166.321,-241.03 -115.491,-44.854 -247.227,-17.143 -327.808,68.955 -3.953,4.229 -9.8,6.108 -15.491,5.02 -5.681,-1.108 -10.396,-5.059 -12.478,-10.459 -42.729,-110.854 -154.966,-186.445 -279.282,-188.11 -1.379,-0.015 -2.766,-0.024 -4.138,-0.024 -109.316,0 -196.15,58.252 -238.667,160.337 -103.682,248.95 -44.37,413.833 -43.76,415.469 2.002,5.351 1.15,11.377 -2.268,15.957 -3.42,4.58 -8.882,7.095 -14.626,6.738 -1.826,-0.059 -51.079,-1.274 -79.016,74.37 -38.176,126.419 51.407,209.817 58.206,215.916 z"
           id="path185" /></g></g><g
       id="g189"><g
         id="g188"><ellipse
           transform="matrix(0.1936,-0.9811,0.9811,0.1936,-266.0659,3214.3235)"
           style="fill:#f68474"
           cx="1822.28"
           cy="1769.0129"
           rx="39.511002"
           ry="82.627998"
           id="ellipse187" /></g></g><g
       id="g191"><g
         id="g190"><ellipse
           transform="matrix(0.1936,-0.9811,0.9811,0.1936,118.8741,3929.2637)"
           style="fill:#f68474"
           cx="2449.656"
           cy="1892.319"
           rx="39.511002"
           ry="82.627998"
           id="ellipse189" /></g></g><g
       style="opacity:0.3"
       id="g193"><g
         id="g192"><path
           style="fill:#660000"
           d="m 1753.924,836.794 c 0,0 405.007,-64.125 613.178,-157.078 0,0 -430.906,23.99 -613.178,157.078 z"
           id="path191" /></g></g></g></svg>
